<?xml version="1.0" standalone="no"?>
<!DOCTYPE svg PUBLIC "-//W3C//DTD SVG 1.1//EN" "http://www.w3.org/Graphics/SVG/1.1/DTD/svg11.dtd" >
<svg xmlns="http://www.w3.org/2000/svg">
<metadata></metadata>
<defs>
<font id="heliosthinregular" horiz-adv-x="1079" >
<font-face units-per-em="2048" ascent="1638" descent="-410" />
<missing-glyph horiz-adv-x="536" />
<glyph horiz-adv-x="0" />
<glyph unicode="&#xd;" horiz-adv-x="536" />
<glyph unicode=" "  horiz-adv-x="536" />
<glyph unicode="&#x09;" horiz-adv-x="536" />
<glyph unicode="&#xa0;" horiz-adv-x="536" />
<glyph unicode="!" horiz-adv-x="636" d="M279 1487l18 -1116h49l8 1116h-75zM287 0h69v182h-69v-182z" />
<glyph unicode="&#x22;" horiz-adv-x="534" d="M102 891h72v557h-72v-557zM360 891h72v557h-72v-557z" />
<glyph unicode="#" horiz-adv-x="1591" d="M145 512h344l-180 -510h94l183 510h278l-182 -510h98l181 510h362l23 74h-361l102 295h336l23 73h-328l178 514h-94l-182 -514h-277l183 514h-99l-182 -514h-379l-22 -73h377l-107 -295h-346zM614 586l103 295h274l-102 -295h-275z" />
<glyph unicode="$" d="M92 422q0 -201 105.5 -316.5t302.5 -134.5v-143h61v143q426 31 426 396q0 315 -426 389v633h6q303 0 326 -293h59q-2 170 -102 262t-289 96v92h-61v-92q-172 0 -271.5 -99.5t-99.5 -262.5q0 -156 90 -249t281 -143v-661q-336 41 -342 389h-66v-6zM197 1098 q0 133 79.5 209.5t223.5 81.5v-619q-156 43 -229.5 120t-73.5 208zM561 39v647q182 -37 268 -113.5t86 -210.5q0 -137 -90 -222t-264 -101z" />
<glyph unicode="%" horiz-adv-x="1505" d="M84 1171q0 -66 24.5 -123t67.5 -100t100.5 -67.5t122.5 -24.5q66 0 123.5 24.5t100.5 67.5t67.5 100.5t24.5 122.5q0 66 -24.5 124.5t-67.5 101.5t-100.5 67.5t-123.5 24.5t-123 -24.5t-100 -67.5t-67.5 -101.5t-24.5 -124.5zM147 1169q0 53 19.5 99.5t54.5 80t80 53 t98 19.5t99.5 -19.5t81 -54t55 -80.5t20.5 -98q0 -53 -20.5 -99t-55 -80t-81.5 -53t-99 -19q-51 0 -97 19t-80 53t-54.5 80t-20.5 99zM303 -33h70l827 1522h-72zM788 283q0 -66 26 -123.5t69 -100.5t100 -67.5t123 -24.5t123 24.5t100 67.5t67.5 100.5t24.5 123.5t-24.5 123 t-67.5 100t-100.5 67.5t-122.5 24.5q-66 0 -124 -24.5t-101 -67.5t-68 -100t-25 -123zM852 283q0 53 19.5 99t54.5 80t81 53.5t99 19.5q51 0 97 -19.5t81 -54.5t54.5 -81t19.5 -97q0 -53 -20.5 -99.5t-54.5 -80t-80 -53t-97 -19.5q-53 0 -99 19.5t-80 53t-54.5 80 t-20.5 99.5z" />
<glyph unicode="&#x26;" horiz-adv-x="1259" d="M113 397q0 -96 32.5 -176t92 -139t144.5 -92t187 -33q123 0 238 61.5t211 178.5l162 -197h86l-209 258q94 162 98 412h-63q0 -104 -20.5 -192.5t-59.5 -166.5l-424 529q299 135 299 366q0 127 -80 204t-205 77q-133 0 -215 -77t-82 -200q0 -80 46 -161.5t132 -186.5 q-371 -166 -370 -465zM182 399q0 139 86 244t258 164l447 -551q-78 -117 -187.5 -176.5t-234.5 -59.5q-78 0 -144.5 29t-116.5 80t-79 120.5t-29 149.5zM373 1221q0 43 17.5 80.5t47 65.5t69.5 44t87 16q98 0 163.5 -61t65.5 -160q0 -104 -67.5 -181t-208.5 -136 q-86 92 -130 173t-44 159z" />
<glyph unicode="'" horiz-adv-x="278" d="M104 891h70v557h-70v-557z" />
<glyph unicode="(" horiz-adv-x="595" d="M201 532q0 -510 319 -989h70q-164 244 -243 486.5t-79 511.5q0 264 74 493.5t227 446.5h-73q-150 -225 -222.5 -455.5t-72.5 -493.5z" />
<glyph unicode=")" horiz-adv-x="595" d="M12 -457h70q322 481 321 989q0 262 -72.5 492.5t-221.5 456.5h-74q154 -217 227.5 -446.5t73.5 -493.5q0 -268 -80 -511t-244 -487z" />
<glyph unicode="*" horiz-adv-x="1032" d="M211 1241l264 -72l-180 -225l53 -41l166 232l170 -232l51 41l-178 225l264 72l-26 72l-252 -94l8 268h-70l8 -268l-253 94z" />
<glyph unicode="+" horiz-adv-x="1722" d="M256 586h575v-586h62v586h573v61h-573v586h-62v-586h-575v-61z" />
<glyph unicode="," horiz-adv-x="536" d="M137 -217h72l147 395h-71z" />
<glyph unicode="-" horiz-adv-x="798" d="M143 602h512v45h-512v-45z" />
<glyph unicode="." horiz-adv-x="536" d="M236 0h65v178h-65v-178z" />
<glyph unicode="/" horiz-adv-x="602" d="M-29 -174h72l586 1700h-72z" />
<glyph unicode="0" d="M82 702q0 -367 120 -556t337 -189t337.5 189.5t120.5 555.5q0 367 -120.5 555.5t-337.5 188.5t-337 -188.5t-120 -555.5zM152 702q0 338 101 509t288 171q186 0 286.5 -171t100.5 -509t-100.5 -510t-286.5 -172t-287.5 172t-101.5 510z" />
<glyph unicode="1" horiz-adv-x="1077" d="M205 1083h18q113 0 195 35t147 109v-1227h68v1403h-68q-41 -254 -360 -260v-60z" />
<glyph unicode="2" d="M104 0h857v61h-789q-4 16 -4 31v29q0 72 28.5 130t85 113.5t140.5 109.5t192 120q84 49 149.5 96t112 99.5t70 117t23.5 150.5t-29 156.5t-82 121.5t-128 79t-165 28q-94 0 -172 -29t-133 -83t-85 -132t-30 -176v-18h72v22q0 166 95.5 259t252.5 93q147 0 238.5 -87 t91.5 -240q0 -78 -23.5 -136.5t-76.5 -113.5q-57 -59 -147.5 -109.5t-196.5 -118.5q-117 -72 -191 -136t-106 -118q-35 -55 -42.5 -109t-7.5 -110v-100z" />
<glyph unicode="3" d="M96 416q0 -217 114 -336t316 -119q102 0 187.5 31t146 88t93 136t32.5 175q0 135 -73.5 229.5t-209.5 122.5q111 35 175.5 127.5t64.5 219.5q0 78 -27.5 143t-79 111.5t-122 72t-158.5 25.5q-201 0 -309.5 -108.5t-108.5 -307.5v-6h64v10q0 166 90 257t250 91 q158 0 243.5 -77.5t85.5 -213.5q0 -150 -99 -235.5t-286 -85.5q-10 0 -22 1t-27 1v-59h43q434 0 434 -328q0 -78 -28.5 -143.5t-79.5 -111.5t-123 -71.5t-158 -25.5q-168 0 -263 100t-95 291v6h-70v-10z" />
<glyph unicode="4" d="M98 373h660v-373h65v373h160v63h-160v967h-59l-666 -963v-67zM168 436l592 852v-852h-592z" />
<glyph unicode="5" d="M100 360q18 -193 130 -298t294 -105q102 0 186.5 33t143.5 93t92 146t33 193q0 102 -33 186t-90 144.5t-138 93.5t-175 33q-96 0 -172 -24t-140 -77l88 563h603v62h-656l-116 -733h55q59 72 140 110.5t185 38.5q84 0 154 -27.5t120 -77.5t77.5 -123t27.5 -161 q0 -188 -104.5 -299t-284.5 -111q-154 0 -246 87.5t-108 252.5h-66z" />
<glyph unicode="6" d="M98 668q0 -711 467 -711q88 0 165 33t133.5 95t88 151.5t31.5 199.5q0 111 -30.5 199t-86 149.5t-132.5 94t-171 32.5q-147 0 -250.5 -86t-142.5 -245q-2 29 -2 53v51q0 692 410 692q281 0 321 -282h66q-16 166 -114.5 257t-260.5 91q-250 0 -371 -192.5t-121 -581.5z M207 438q0 94 26.5 170t73.5 130.5t111.5 83t142.5 28.5q156 0 253 -108.5t97 -305.5t-100 -304t-260 -107q-76 0 -139.5 28.5t-108.5 81.5t-70.5 130t-25.5 173z" />
<glyph unicode="7" d="M121 1337h753q-451 -592 -555 -1337h68q135 813 571 1335v68h-837v-66z" />
<glyph unicode="8" d="M92 391q0 -96 32 -175t90 -136t139 -89t179 -32q104 0 188.5 30.5t144 88t91 139.5t31.5 182q0 139 -67.5 232.5t-204.5 138.5q111 51 162 127t51 186q0 164 -104.5 262.5t-284.5 98.5q-88 0 -160 -25.5t-123 -74t-78.5 -115t-27.5 -146.5q0 -221 215 -313 q-272 -94 -273 -379zM164 401q0 156 99 245t276 89q176 0 276 -90t100 -248q0 -82 -27.5 -149.5t-77.5 -115.5t-119.5 -74.5t-151.5 -26.5q-84 0 -153 26.5t-118 75.5t-76.5 116.5t-27.5 151.5zM223 1090q0 63 22.5 117.5t63.5 93t99.5 60t130.5 21.5t130 -21.5t100 -60 t64.5 -93t22.5 -117.5q0 -66 -23.5 -120.5t-65.5 -93t-100.5 -59t-127.5 -20.5q-141 0 -228.5 79t-87.5 214z" />
<glyph unicode="9" d="M98 963q0 -111 30 -199t85 -149.5t132 -94.5t171 -33q147 0 250.5 86t142.5 246q2 -29 2 -55v-49q0 -692 -409 -692q-281 0 -322 282h-65q16 -166 114.5 -257t259.5 -91q494 0 494 774q0 711 -469 711q-88 0 -164 -33t-132 -95.5t-88 -151.5t-32 -199zM168 963 q0 197 100.5 304t259.5 107q76 0 139.5 -28.5t109.5 -82t71.5 -130t25.5 -172.5q0 -94 -26.5 -170t-73.5 -130.5t-112.5 -83t-143.5 -28.5q-156 0 -253 108.5t-97 305.5z" />
<glyph unicode=":" horiz-adv-x="585" d="M258 0h68v178h-68v-178zM258 827h68v179h-68v-179z" />
<glyph unicode=";" horiz-adv-x="587" d="M131 -217h70l149 395h-74zM281 827h67v181h-67v-181z" />
<glyph unicode="&#x3c;" horiz-adv-x="1722" d="M266 596l1190 -485v69l-1079 436l1079 437v69l-1190 -485v-41z" />
<glyph unicode="=" horiz-adv-x="1722" d="M256 408h1210v61h-1210v-61zM256 766h1210v61h-1210v-61z" />
<glyph unicode="&#x3e;" horiz-adv-x="1722" d="M266 111l1190 485v41l-1190 485v-69l1077 -437l-1077 -436v-69z" />
<glyph unicode="?" horiz-adv-x="956" d="M63 1065h68v8q0 184 91 281.5t257 97.5t256 -77t90 -222q0 -96 -51 -166q-51 -72 -104.5 -120t-94.5 -89q-47 -47 -81.5 -92t-49.5 -111q-10 -43 -15 -94t-7 -114h65q4 59 9.5 107t13.5 85q10 53 41 90t72 78q37 37 93 86t111 127q68 98 68 221q0 80 -28.5 146.5 t-82 113.5t-127 73t-165.5 26q-201 0 -315 -119t-114 -336zM416 0h80v178h-80v-178z" />
<glyph unicode="@" horiz-adv-x="2068" d="M129 530q0 -395 301 -622q238 -182 623 -182q358 0 649 217l-23 34q-141 -94 -306 -144t-331 -50q-188 0 -339.5 52t-259 148.5t-166 231.5t-58.5 299q0 213 83 389t243 305q231 190 571 191q168 0 305.5 -45t233.5 -127t149.5 -193.5t53.5 -247.5q0 -137 -47.5 -258.5 t-127.5 -205.5q-57 -61 -128.5 -94t-141.5 -33q-127 0 -127 96q0 16 7 47t18 74l139 553h-66l-63 -138q-61 178 -260 179q-94 0 -179 -42t-148.5 -116t-100.5 -174.5t-37 -216.5q0 -160 80 -243t237 -83q88 0 167 49.5t126 141.5q-2 -12 -3 -24.5t-1 -23.5q0 -141 191 -141 q78 0 156.5 28.5t148.5 82.5q117 92 179 230t62 310q0 152 -65.5 280t-194.5 226q-100 78 -243.5 123t-311.5 45q-250 0 -451.5 -91t-344.5 -267q-199 -240 -199 -570zM688 451q0 104 28.5 194t78 155.5t117 103.5t147.5 38q98 0 160.5 -54.5t85.5 -156.5l-66 -262 q-33 -125 -121 -199.5t-205 -74.5q-104 0 -164.5 66.5t-60.5 189.5z" />
<glyph unicode="A" horiz-adv-x="1187" d="M-12 0h69l195 508h694l193 -508h67l-565 1489h-78zM276 569l326 838l320 -838h-646z" />
<glyph unicode="B" horiz-adv-x="1277" d="M170 0h453q131 0 230 13.5t175 60.5q78 47 123 133t45 190q0 319 -330 383q125 45 189.5 132t64.5 208q0 100 -41 179t-118 124q-70 41 -164.5 53.5t-221.5 12.5h-405v-1489zM240 63v685h370q262 0 388 -77t126 -261q0 -113 -48 -194t-134 -116q-66 -27 -147.5 -32 t-186.5 -5h-368zM240 801v624h342q117 0 204.5 -13t146 -48t88.5 -93.5t30 -146.5q0 -170 -115 -246.5t-350 -76.5h-346z" />
<glyph unicode="C" horiz-adv-x="1406" d="M104 741q0 -182 42 -325.5t122 -242.5t195 -151.5t260 -52.5q125 0 228.5 37t178 104.5t118.5 165t50 218.5h-67q-6 -109 -45 -194t-106.5 -145.5t-161 -92t-205.5 -31.5q-123 0 -221.5 48t-169 138t-108.5 222t-38 302t40 303.5t111.5 225.5t173 140t222.5 48 q209 0 339 -104.5t163 -296.5h69q-10 104 -56 189t-120 146.5t-172 95.5t-211 34q-145 0 -262 -52.5t-198.5 -151.5t-126 -244.5t-44.5 -332.5z" />
<glyph unicode="D" horiz-adv-x="1425" d="M170 0h342q150 0 267.5 14.5t209.5 59.5q160 74 245 243.5t85 425.5t-85 425t-245 247q-92 47 -209.5 60.5t-267.5 13.5h-342v-1489zM242 63v1360h286q172 0 299 -22.5t222 -104.5q196 -175 196 -549q0 -233 -70.5 -385.5t-203.5 -224.5q-88 -47 -196.5 -60.5 t-246.5 -13.5h-286z" />
<glyph unicode="E" horiz-adv-x="1173" d="M170 0h928v68h-858v675h766v64h-766v614h837v68h-907v-1489z" />
<glyph unicode="F" horiz-adv-x="1081" d="M170 0h70v743h706v64h-706v614h798v68h-868v-1489z" />
<glyph unicode="G" horiz-adv-x="1468" d="M109 743q0 -180 45 -324.5t130 -244.5t203.5 -153.5t266.5 -53.5q379 0 540 326v-293h60v713h-557v-62h491v-65q0 -129 -38 -231.5t-106.5 -175.5t-167.5 -110.5t-222 -37.5q-131 0 -236.5 49t-180.5 141t-116 224.5t-41 297.5q0 166 41 299.5t116 225.5t180.5 141 t236.5 49q211 0 342 -101.5t168 -289.5h69q-31 217 -181.5 336t-397.5 119q-150 0 -268.5 -54.5t-202.5 -155t-129 -244.5t-45 -325z" />
<glyph unicode="H" horiz-adv-x="1417" d="M168 0h72v764h940v-764h69v1489h-69v-664h-940v664h-72v-1489z" />
<glyph unicode="I" horiz-adv-x="428" d="M180 0h70v1489h-70v-1489z" />
<glyph unicode="J" horiz-adv-x="978" d="M78 377q0 -203 95 -307.5t269 -104.5q205 0 293 117t88 352v1055h-69v-1034q0 -104 -13.5 -184.5t-48.5 -133.5t-93 -80.5t-150 -27.5q-158 0 -232 92t-74 282q0 12 1 27.5t1 34.5h-65q-2 -25 -2 -47v-41z" />
<glyph unicode="K" horiz-adv-x="1202" d="M168 0h72v559l280 285l639 -844h84l-678 893l588 596h-88l-825 -838v838h-72v-1489z" />
<glyph unicode="L" horiz-adv-x="1052" d="M172 0h858v68h-788v1421h-70v-1489z" />
<glyph unicode="M" horiz-adv-x="1599" d="M170 0h61v1401l535 -1401h65l537 1401v-1401h62v1489h-97l-532 -1401l-533 1401h-98v-1489z" />
<glyph unicode="N" horiz-adv-x="1409" d="M168 0h70v1368l933 -1368h70v1489h-70v-1370l-931 1370h-72v-1489z" />
<glyph unicode="O" horiz-adv-x="1533" d="M109 743q0 -182 45 -326.5t130 -243.5t206.5 -152.5t275.5 -53.5t275.5 53.5t206.5 152.5t131 243.5t46 326.5t-46 326.5t-131 245t-206.5 154t-275.5 53.5t-275.5 -53.5t-206.5 -154t-130 -245t-45 -326.5zM180 743q0 168 40 300.5t116 224.5t184.5 141t245.5 49 t245.5 -49t184.5 -141t117 -224.5t41 -300.5t-41 -300t-117 -224t-184.5 -140t-245.5 -48t-245.5 48t-184.5 140t-116 224t-40 300z" />
<glyph unicode="P" horiz-adv-x="1189" d="M170 0h70v688h329q150 0 252.5 19.5t177.5 93.5q111 115 111 295q0 205 -132.5 299t-402.5 94h-405v-1489zM240 750v675h284q121 0 210 -8t155 -45q149 -81 149 -268q0 -115 -46 -198t-124 -118q-66 -29 -150.5 -33.5t-195.5 -4.5h-282z" />
<glyph unicode="Q" horiz-adv-x="1533" d="M109 743q0 -180 45 -324.5t128 -244.5t202.5 -153.5t267.5 -53.5q244 0 391 107l209 -172l43 49l-201 164q231 225 231 645q0 176 -46 317.5t-132 239.5t-207.5 151.5t-273.5 53.5q-154 0 -275.5 -53.5t-206.5 -154t-130 -244.5t-45 -327zM180 743q0 168 40 301.5 t116 225.5t184.5 141t245.5 49t245.5 -49t184.5 -141t117 -225.5t41 -301.5q0 -197 -54.5 -345t-154.5 -240l-189 149l-41 -47l175 -143q-125 -84 -324 -84q-137 0 -245.5 48t-184.5 139t-116 223t-40 300z" />
<glyph unicode="R" horiz-adv-x="1286" d="M170 0h70v705h458q106 0 176 -17.5t113 -69.5q45 -55 54.5 -130.5t15.5 -182.5q6 -117 12 -191.5t35 -113.5h76q-25 33 -35 80t-15.5 106.5t-7.5 132t-10 158.5q-23 219 -209 256q268 82 268 367q0 215 -123.5 302t-383.5 87h-494v-1489zM240 766v657h424 q119 0 203.5 -13t150.5 -81q84 -88 84 -235q0 -160 -101.5 -244t-302.5 -84h-458z" />
<glyph unicode="S" horiz-adv-x="1185" d="M94 455q8 -115 48 -206t105.5 -153.5t155 -95.5t197.5 -33q115 0 207 31t155.5 88t97.5 135t34 174q0 139 -68 215t-203 127q-39 14 -88 29.5t-101 30t-103.5 29t-92.5 26.5q-47 16 -84 34.5t-65 45.5q-92 82 -92 201q0 150 99 239.5t277 89.5q92 0 168 -26.5 t130.5 -75.5t85 -119t30.5 -156h66q0 96 -35 176t-98.5 138.5t-150.5 90.5t-191 32t-187.5 -29t-140.5 -81t-88 -122.5t-31 -156.5q1 -152 105 -246q33 -31 77.5 -52.5t98.5 -39.5q39 -14 90 -28.5t103 -29t101.5 -29t86.5 -28.5q57 -23 101 -49.5t72.5 -61t43 -82 t14.5 -110.5q0 -74 -29.5 -137.5t-85 -109.5t-133.5 -72.5t-174 -26.5q-94 0 -173 28.5t-136 84t-91 134t-40 177.5h-68z" />
<glyph unicode="T" horiz-adv-x="1054" d="M27 1423h471v-1423h69v1423h463v66h-1003v-66z" />
<glyph unicode="U" horiz-adv-x="1386" d="M158 520q0 -266 141 -409.5t395 -143.5q125 0 224.5 38t169 108.5t106.5 173t37 233.5v969h-70v-936q0 -256 -119.5 -389t-347.5 -133q-229 0 -348 131t-119 391v936h-69v-969z" />
<glyph unicode="V" horiz-adv-x="1087" d="M-6 1489l516 -1489h65l519 1489h-74l-475 -1387l-477 1387h-74z" />
<glyph unicode="W" horiz-adv-x="1703" d="M16 1489l398 -1489h69l369 1391l369 -1391h69l398 1489h-70l-363 -1364l-360 1364h-84l-360 -1364l-365 1364h-70z" />
<glyph unicode="X" horiz-adv-x="1097" d="M2 0h78l465 702l471 -702h80l-506 764l477 725h-78l-440 -670l-443 670h-81l483 -727z" />
<glyph unicode="Y" horiz-adv-x="1097" d="M2 1489l512 -830v-659h68v655l512 834h-80l-463 -760l-469 760h-80z" />
<glyph unicode="Z" horiz-adv-x="1095" d="M18 0h1057v63h-981l955 1354v72h-949v-66h875l-957 -1353v-70z" />
<glyph unicode="[" horiz-adv-x="624" d="M238 -426h350v64h-277v1785h277v64h-350v-1913z" />
<glyph unicode="\" horiz-adv-x="602" d="M-29 1528l586 -1700h72l-586 1700h-72z" />
<glyph unicode="]" horiz-adv-x="624" d="M45 -362v-64h350v1913h-350v-64h277v-1785h-277z" />
<glyph unicode="^" horiz-adv-x="2068" d="M430 913h111l493 488l492 -488h110l-555 557h-98z" />
<glyph unicode="_" horiz-adv-x="1032" d="M0 -430v-62h1032v62h-1032z" />
<glyph unicode="`" horiz-adv-x="1034" d="M311 1540l256 -332h66l-211 332h-111z" />
<glyph unicode="a" horiz-adv-x="1048" d="M72 279q0 -68 22.5 -124.5t64.5 -96.5t101 -61.5t131 -21.5q147 0 258 55.5t174 153.5q0 -100 33 -147t109 -47q10 0 24.5 2t32.5 4v55q-10 -2 -19.5 -3t-19.5 -1q-61 0 -77.5 43t-16.5 143v523q0 66 -6 120t-41 101q-84 125 -314 125q-186 0 -294.5 -88t-114.5 -238h61 q8 127 99.5 196.5t255.5 69.5q141 0 214.5 -57t73.5 -168v-90q0 -41 -19.5 -60.5t-59 -30.5t-101 -16.5t-143.5 -17.5q-109 -16 -190 -39.5t-134 -61.5t-78.5 -92.5t-25.5 -129.5zM139 289q0 63 24.5 107t76 75t128 50.5t179.5 31.5q117 14 185 24t91 39v-157 q0 -109 -18.5 -181.5t-87.5 -132.5q-57 -47 -136 -75.5t-171 -28.5q-131 0 -201 64.5t-70 183.5z" />
<glyph unicode="b" horiz-adv-x="1183" d="M143 0h66v229q123 -258 405 -258q109 0 196 38t148.5 111t95 177t33.5 238q0 131 -33.5 236.5t-95 178t-148.5 111.5t-196 39q-145 0 -247.5 -68.5t-157.5 -202.5v658h-66v-1487zM209 535q0 242 109.5 373.5t295.5 131.5q92 0 167 -33.5t129.5 -99t83 -160t28.5 -212.5 q0 -119 -28.5 -213.5t-83 -159t-129 -98t-167.5 -33.5q-186 0 -295.5 132t-109.5 372z" />
<glyph unicode="c" horiz-adv-x="1075" d="M92 537q0 -133 34 -237.5t94.5 -176.5t146.5 -111t190 -39q178 0 292 100.5t132 274.5h-61q-10 -72 -40 -130t-77 -99t-108.5 -63.5t-131.5 -22.5q-186 0 -295.5 131t-109.5 373t109.5 372.5t295.5 130.5q135 0 227.5 -74.5t114.5 -203.5h66q-23 160 -129.5 249 t-278.5 89q-109 0 -195.5 -39t-148 -110.5t-94.5 -177t-33 -236.5z" />
<glyph unicode="d" horiz-adv-x="1183" d="M96 535q0 -133 34 -237.5t95.5 -177.5t148.5 -111t195 -38q147 0 251 69t155 200v-240h63v1487h-63v-647q-47 121 -152.5 190.5t-253.5 69.5q-109 0 -195.5 -39t-148 -111.5t-95.5 -178t-34 -236.5zM162 535q0 119 28.5 213t83 159.5t129 99t166.5 33.5q186 0 296 -131.5 t110 -373.5q0 -240 -109.5 -372t-296.5 -132q-92 0 -166.5 33.5t-129 98t-83 159t-28.5 213.5z" />
<glyph unicode="e" horiz-adv-x="1083" d="M90 537q0 -133 33 -237.5t92 -176.5t143 -111t187 -39q80 0 150.5 25t127 70t95.5 108t57 141h-64q-37 -135 -135 -209.5t-231 -74.5q-84 0 -155 33.5t-123 96t-80.5 151.5t-28.5 202v16h837v39q0 254 -120.5 391.5t-329.5 137.5q-102 0 -186.5 -39t-143.5 -110.5 t-92 -177t-33 -236.5zM160 592q12 213 119.5 330.5t277.5 117.5q80 0 147.5 -30.5t116.5 -88t77 -141.5t28 -188h-766z" />
<glyph unicode="f" horiz-adv-x="501" d="M61 1014h150v-1014h63v1014h181v61h-181v152q0 59 5.5 100t20.5 66.5t44 37t78 11.5q10 0 18.5 -1t18.5 -1v55q-14 2 -27 2h-22q-61 0 -99.5 -14.5t-61 -47t-30.5 -85t-8 -125.5v-150h-150v-61z" />
<glyph unicode="g" horiz-adv-x="1183" d="M96 539q0 -133 33 -237.5t94.5 -177.5t148.5 -112t193 -39q145 0 251 69t159 194v-111q0 -96 -6 -172t-41 -141q-104 -180 -371 -181q-166 0 -258 69t-98 189h-62q0 -72 29 -130t81 -99t126 -64.5t166 -23.5q152 0 260 47t170 139q47 72 57 145.5t10 159.5v1012h-63v-237 q-43 123 -149.5 193.5t-256.5 70.5q-109 0 -195.5 -38t-148 -110.5t-95.5 -177t-34 -237.5zM162 539q0 240 111.5 371.5t295.5 131.5q186 0 296 -130.5t110 -372.5t-109.5 -373t-296.5 -131q-184 0 -295.5 132t-111.5 372z" />
<glyph unicode="h" d="M143 0h66v575q0 55 2 104.5t10 93.5t26.5 83t49.5 74q97 110 273 110h3q164 0 232.5 -84t68.5 -264v-692h66v713q0 387 -369 387q-129 0 -220 -52.5t-142 -148.5v590h-66v-1489z" />
<glyph unicode="i" horiz-adv-x="362" d="M150 0h65v1075h-65v-1075zM150 1315h65v174h-65v-174z" />
<glyph unicode="j" horiz-adv-x="360" d="M-16 -367v-63h39q63 0 101 14.5t58.5 45t26.5 80.5t6 122v1241h-65v-1218q0 -61 -2.5 -103.5t-16.5 -69t-43 -38t-80 -11.5h-24zM150 1313h65v174h-65v-174z" />
<glyph unicode="k" horiz-adv-x="948" d="M143 0h66v383l264 254l424 -637h74l-453 684l391 391h-82l-618 -612v1026h-66v-1489z" />
<glyph unicode="l" horiz-adv-x="362" d="M150 0h65v1489h-65v-1489z" />
<glyph unicode="m" horiz-adv-x="1689" d="M143 0h66v580q0 55 2 103t9 91t23.5 82t45.5 74q45 53 109.5 81.5t142.5 28.5q88 0 151.5 -37.5t91.5 -103.5q23 -53 27 -114.5t4 -139.5v-645h64v580q0 55 2 103t10 91t24.5 82t45.5 74q43 53 107.5 81.5t141.5 28.5q88 0 151.5 -37.5t92.5 -103.5q23 -53 27 -114.5 t4 -139.5v-645h65v713q0 387 -338 387q-119 0 -208 -56.5t-142 -164.5q-29 104 -110.5 162.5t-206.5 58.5q-115 0 -200 -52.5t-136 -148.5v176h-66v-1075z" />
<glyph unicode="n" d="M143 0h66v575q0 55 2 104.5t10 93.5t26.5 83t49.5 74q97 110 273 110h3q164 0 232.5 -84t68.5 -264v-692h66v713q0 387 -369 387q-129 0 -220 -52.5t-142 -148.5v176h-66v-1075z" />
<glyph unicode="o" horiz-adv-x="1128" d="M92 537q0 -133 33 -237.5t94.5 -176.5t148.5 -111t195 -39q109 0 196 39t148.5 111t95 176t33.5 238q0 131 -33.5 236.5t-95 177t-148.5 110.5t-196 39t-195.5 -39t-148 -110.5t-94.5 -177t-33 -236.5zM158 537q0 242 109.5 372.5t295.5 130.5q184 0 296 -132t112 -371 q0 -240 -111.5 -372t-296.5 -132q-186 0 -295.5 131t-109.5 373z" />
<glyph unicode="p" horiz-adv-x="1183" d="M143 -426h66v662q49 -127 153.5 -195t251.5 -68q109 0 196 39t148.5 111t95 176t33.5 238q0 133 -33.5 237.5t-95 177t-148.5 110.5t-196 38q-150 0 -252 -68.5t-153 -202.5v246h-66v-1501zM209 537q0 240 109.5 371.5t295.5 131.5q92 0 167 -33.5t129.5 -98t83 -159 t28.5 -212.5q0 -240 -111.5 -372t-296.5 -132q-186 0 -295.5 131t-109.5 373z" />
<glyph unicode="q" horiz-adv-x="1183" d="M96 535q0 -133 34 -237.5t95.5 -176.5t148.5 -111t195 -39q147 0 252 67.5t154 194.5v-659h63v1501h-63v-248q-51 133 -153.5 203t-252.5 70q-109 0 -195.5 -39t-148 -111.5t-95.5 -177t-34 -237.5zM162 535q0 119 28.5 213t83 158.5t129 99t166.5 34.5t167 -34.5 t128.5 -99t82 -159t28.5 -212.5q0 -242 -109.5 -373t-296.5 -131q-184 0 -295.5 132t-111.5 372z" />
<glyph unicode="r" horiz-adv-x="544" d="M143 0h66v522q0 127 15.5 221.5t52 158t98 95t155.5 35.5v66q-238 0 -321 -215v192h-66v-1075z" />
<glyph unicode="s" horiz-adv-x="993" d="M100 322q16 -166 124 -257.5t288 -91.5q84 0 154.5 23.5t121 64.5t79 96.5t28.5 121.5t-21.5 111.5t-64.5 78.5t-108.5 57.5t-151.5 46.5q-39 10 -74 19.5t-65 19.5q-100 31 -154.5 75t-54.5 136q0 94 78.5 155.5t212.5 61.5q133 0 210.5 -63.5t94.5 -185.5h65 q-14 143 -111.5 226t-250.5 83q-84 0 -152.5 -21.5t-117 -60.5t-74 -90t-25.5 -113q0 -116 88 -186q66 -51 165 -79t230 -63q109 -29 161 -78t52 -128q0 -111 -86 -177.5t-231 -66.5q-289 0 -344 285h-66z" />
<glyph unicode="t" horiz-adv-x="501" d="M10 1018h189v-850q0 -102 32.5 -148.5t116.5 -46.5h111v60h-111q-31 0 -48 12t-25.5 38t-9.5 64t-1 89v782h195v57h-195v293h-65v-293h-189v-57z" />
<glyph unicode="u" d="M139 356q0 -385 369 -385q129 0 219 50.5t141 146.5v-168h66v1075h-66v-581q0 -113 -11 -199t-75 -156q-94 -106 -276 -106q-164 0 -233.5 82t-69.5 262v698h-64v-719z" />
<glyph unicode="v" horiz-adv-x="917" d="M16 1075l400 -1075h73l414 1075h-67l-383 -997l-369 997h-68z" />
<glyph unicode="w" horiz-adv-x="1382" d="M27 1075l340 -1075h67l252 958l260 -958h68l342 1075h-66l-311 -973l-262 973h-60l-256 -973l-307 973h-67z" />
<glyph unicode="x" horiz-adv-x="847" d="M-10 0h76l356 504l360 -504h76l-397 555l370 520h-75l-332 -467l-340 467h-78l377 -520z" />
<glyph unicode="y" horiz-adv-x="903" d="M12 1075l400 -1083l-93 -236q-25 -63 -56.5 -93t-82.5 -30q-35 0 -78 13v-64q16 -8 36 -10t40 -2q88 0 139.5 66.5t102.5 201.5l467 1237h-70l-371 -997l-370 997h-64z" />
<glyph unicode="z" horiz-adv-x="903" d="M35 0h833v61h-766l744 936v78h-770v-61h704l-745 -936v-78z" />
<glyph unicode="{" horiz-adv-x="1032" d="M180 500q12 0 24.5 1t22.5 1q74 0 125 -16.5t82 -51.5t44.5 -91t13.5 -136v-240q0 -106 12 -179t48 -119t99.5 -66.5t165.5 -20.5h35v70h-39q-76 0 -123 14.5t-72.5 46t-35 84.5t-9.5 131v244q0 78 -7 137.5t-27.5 103.5t-59.5 74.5t-100 49.5q61 18 100 48.5t59.5 75 t27.5 103.5t7 137v244q0 78 9.5 131t35 85t72.5 46t123 14h39v72h-35q-102 0 -165.5 -20.5t-99.5 -66.5t-48 -120t-12 -180v-240q0 -158 -57.5 -226.5t-201.5 -68.5h-26q-12 0 -27 2v-73z" />
<glyph unicode="|" horiz-adv-x="1032" d="M479 -487h74v2068h-74v-2068z" />
<glyph unicode="}" horiz-adv-x="1034" d="M184 -346v-72h35q100 0 163.5 20.5t99.5 66.5t48.5 119t12.5 179v240q0 160 58 227.5t208 67.5q10 0 22.5 -1t24.5 -1v73q-14 -2 -29 -2h-24q-145 0 -202.5 69t-57.5 226v240q0 106 -12.5 180t-48.5 120t-99.5 66.5t-163.5 20.5h-35v-72h39q76 0 123 -14t72.5 -46t34 -85 t8.5 -131v-244q0 -78 7 -137t28.5 -103.5t60.5 -75t100 -48.5q-61 -18 -100 -49t-60.5 -75t-28.5 -103.5t-7 -137.5v-244q0 -78 -8.5 -131t-34 -84.5t-71.5 -45t-122 -13.5h-41z" />
<glyph unicode="~" horiz-adv-x="1722" d="M180 494q111 78 205 120.5t186 42.5q74 0 144.5 -23.5t146.5 -51.5q66 -25 136.5 -46.5t154.5 -21.5q180 0 391 150v73q-111 -78 -205 -120t-186 -42q-96 0 -190.5 35t-196.5 70q-53 18 -101.5 29.5t-93.5 11.5q-94 0 -191 -39t-200 -113v-75z" />
<glyph unicode="&#xa2;" horiz-adv-x="903" d="M12 1075l400 -1077l-93 -242q-25 -63 -56.5 -93t-82.5 -30q-35 0 -78 13v-76h76q88 0 139.5 66.5t102.5 201.5l467 1237h-70l-371 -997l-370 997h-64zM188 1483q2 -131 73 -203t214 -72t214 72t73 203h-62q-10 -113 -66 -164t-157 -51q-104 0 -160.5 51t-66.5 164h-62z " />
<glyph unicode="&#xa3;" horiz-adv-x="978" d="M78 377q0 -203 95 -307.5t269 -104.5q205 0 293 117t88 352v1055h-69v-1034q0 -104 -13.5 -184.5t-48.5 -133.5t-93 -80.5t-150 -27.5q-158 0 -232 92t-74 282q0 12 1 27.5t1 34.5h-65q-2 -25 -2 -47v-41z" />
<glyph unicode="&#xa5;" horiz-adv-x="1052" d="M172 0h70v1421h788v420h-65v-352h-793v-1489z" />
<glyph unicode="&#xa8;" horiz-adv-x="1173" d="M170 0h928v66h-858v675h766v64h-766v614h837v68h-907v-1487zM430 1718h92v115h-92v-115zM750 1718h94v115h-94v-115z" />
<glyph unicode="&#xa9;" horiz-adv-x="1722" d="M125 725q0 -147 56.5 -280.5t162.5 -237.5q104 -106 236.5 -162.5t279.5 -56.5t282.5 57t243.5 164q104 102 157.5 233t53.5 283q0 150 -54 283t-159 237q-219 215 -524 215q-152 0 -281.5 -54t-234.5 -159q-106 -109 -162.5 -242t-56.5 -280zM190 725q0 133 51.5 255 t149.5 220q94 98 213 146.5t256 48.5t258 -49.5t219 -147.5q96 -94 145.5 -215t49.5 -258q0 -139 -49 -258t-146 -211q-98 -98 -221 -150.5t-256 -52.5t-254 51.5t-217 149.5q-98 96 -148.5 217t-50.5 254zM479 723q0 -106 28 -190t77 -143.5t117.5 -91.5t152.5 -32 q70 0 131.5 20.5t107.5 57.5t74.5 88t34.5 113h-76q-16 -94 -87.5 -152.5t-176.5 -58.5q-131 0 -212 103.5t-81 285.5q0 190 79 292.5t214 102.5q98 0 163 -49t87 -139h82q-6 57 -33.5 103t-70.5 80t-100.5 52.5t-121.5 18.5q-86 0 -157.5 -32t-122.5 -91.5t-80 -144.5 t-29 -193z" />
<glyph unicode="&#xab;" horiz-adv-x="765" d="M90 539l258 -328h82l-252 328l252 311h-82zM342 539l258 -328h84l-254 328l254 311h-84z" />
<glyph unicode="&#xad;" horiz-adv-x="798" d="M143 602h512v45h-512v-45z" />
<glyph unicode="&#xae;" horiz-adv-x="1722" d="M125 725q0 -147 56.5 -280.5t162.5 -237.5q104 -106 236.5 -162.5t279.5 -56.5t281.5 57t244.5 166q104 102 157.5 232t53.5 282q0 150 -54 284t-159 238q-109 104 -241.5 158.5t-282.5 54.5q-152 0 -281.5 -54t-234.5 -159q-106 -109 -162.5 -242t-56.5 -280zM190 725 q0 133 50.5 255t148.5 220q94 98 214 146.5t257 48.5q279 0 475 -197q96 -94 146.5 -215t50.5 -258q0 -139 -48 -258t-145 -211q-98 -98 -222 -150.5t-257 -52.5t-253 51.5t-216 149.5q-98 96 -149.5 217t-51.5 254zM580 307h88v387h262l184 -387h107l-195 402 q96 10 152.5 70.5t56.5 148.5q0 129 -86 183t-264 54h-305v-858zM668 766v328h194q135 0 201.5 -37t66.5 -123q0 -102 -64.5 -135t-205.5 -33h-192z" />
<glyph unicode="&#xb4;" horiz-adv-x="882" d="M141 0h68v1016h663v295h-59v-236h-672v-1075z" />
<glyph unicode="&#xb8;" horiz-adv-x="1083" d="M90 532q0 -131 33 -235t92 -176t143 -111t187 -39q80 0 150.5 23.5t127 69t95.5 108.5t57 141h-64q-37 -135 -135 -209.5t-231 -74.5q-84 0 -155 33.5t-123 96t-80.5 152.5t-28.5 201v16h837v39q0 254 -120.5 391.5t-329.5 137.5q-102 0 -186.5 -39t-143.5 -111t-92 -177 t-33 -237zM160 590q12 211 119.5 329.5t277.5 118.5q80 0 147.5 -30.5t116.5 -89t77 -141.5t28 -187h-766zM344 1294h92v115h-92v-115zM664 1294h94v115h-94v-115z" />
<glyph unicode="&#xbb;" horiz-adv-x="765" d="M82 211h84l258 309l-258 330h-84l254 -330zM336 211h82l258 309l-258 330h-82l252 -330z" />
<glyph unicode="&#x2000;" horiz-adv-x="920" />
<glyph unicode="&#x2001;" horiz-adv-x="1841" />
<glyph unicode="&#x2002;" horiz-adv-x="920" />
<glyph unicode="&#x2003;" horiz-adv-x="1841" />
<glyph unicode="&#x2004;" horiz-adv-x="613" />
<glyph unicode="&#x2005;" horiz-adv-x="460" />
<glyph unicode="&#x2006;" horiz-adv-x="306" />
<glyph unicode="&#x2007;" horiz-adv-x="306" />
<glyph unicode="&#x2008;" horiz-adv-x="230" />
<glyph unicode="&#x2009;" horiz-adv-x="368" />
<glyph unicode="&#x200a;" horiz-adv-x="102" />
<glyph unicode="&#x2010;" horiz-adv-x="798" d="M143 602h512v45h-512v-45z" />
<glyph unicode="&#x2011;" horiz-adv-x="798" d="M143 602h512v45h-512v-45z" />
<glyph unicode="&#x2012;" horiz-adv-x="798" d="M143 602h512v45h-512v-45z" />
<glyph unicode="&#x2013;" horiz-adv-x="1032" d="M0 514h1032v45h-1032v-45z" />
<glyph unicode="&#x2014;" horiz-adv-x="2068" d="M0 512h2068v45h-2068v-45z" />
<glyph unicode="&#x2018;" horiz-adv-x="489" d="M135 1487l146 -404h73l-147 404h-72z" />
<glyph unicode="&#x2019;" horiz-adv-x="489" d="M135 1083h72l145 404h-71z" />
<glyph unicode="&#x201a;" horiz-adv-x="489" d="M96 -219h74l145 403h-73z" />
<glyph unicode="&#x201c;" horiz-adv-x="788" d="M137 1487l144 -404h73l-147 404h-70zM432 1487l146 -404h71l-143 404h-74z" />
<glyph unicode="&#x201d;" horiz-adv-x="788" d="M137 1083h70l145 404h-71zM432 1083h74l143 404h-69z" />
<glyph unicode="&#x201e;" horiz-adv-x="788" d="M98 -211h72l145 404h-73zM395 -211h72l143 404h-69z" />
<glyph unicode="&#x2026;" horiz-adv-x="2068" d="M305 0h66v178h-66v-178zM993 0h66v178h-66v-178zM1683 0h66v178h-66v-178z" />
<glyph unicode="&#x202f;" horiz-adv-x="368" />
<glyph unicode="&#x2039;" horiz-adv-x="512" d="M88 539l258 -328h84l-252 328l252 311h-84z" />
<glyph unicode="&#x203a;" horiz-adv-x="512" d="M80 211h86l258 309l-258 330h-86l254 -330z" />
<glyph unicode="&#x205f;" horiz-adv-x="460" />
<glyph unicode="&#x20ac;" horiz-adv-x="1597" d="M12 1423h471v-1423h70v682q41 18 80 31.5t83 22.5t96 13.5t120 4.5q98 0 182 -17.5t145.5 -63.5t95.5 -125t34 -202q0 -76 -26 -135t-69 -100t-101 -62.5t-124 -21.5q-33 0 -58.5 1t-52 5t-56.5 13t-73 28l-26 -56q45 -16 78.5 -25t64.5 -13.5t59.5 -5.5t61.5 -1 q76 0 146.5 25t125 75t87 128t32.5 184q0 125 -42 208t-111.5 132t-158.5 69.5t-181 20.5q-133 0 -228.5 -16.5t-183.5 -44.5v669h545v66h-1086v-66z" />
<glyph unicode="&#x2122;" horiz-adv-x="1722" d="M287 1425h180v-489h59v489h174v41h-413v-41zM836 936h49v494l198 -494h45l187 494v-494h49v530h-88l-170 -458l-182 458h-88v-530z" />
<glyph unicode="&#x25fc;" horiz-adv-x="1075" d="M0 0v1075h1075v-1075h-1075z" />
</font>
</defs>
</svg>
